name Walk2.mot
datacolumns 19
datarows 20
range 4.58200000 4.60100000
endheader

                time	   L_ground_force_vx	   L_ground_force_vy	   L_ground_force_vz	   L_ground_force_px	   L_ground_force_py	   L_ground_force_pz	   R_ground_force_vx	   R_ground_force_vy	   R_ground_force_vz	   R_ground_force_px	   R_ground_force_py	   R_ground_force_pz	   L_ground_torque_x	   L_ground_torque_y	   L_ground_torque_z	   R_ground_torque_x	   R_ground_torque_y	   R_ground_torque_z	
          4.58200000	         -0.00000000	         -0.00000000	         -0.00000000	          0.00000000	          0.00000000	          0.00000000	          1.29479175	         17.28513450	          0.47024691	          0.29970309	          0.00000000	          0.07028307	          0.00000000	          0.00000000	          0.00000000	          0.00000000	         -0.10801388	          0.00000000	
          4.58300000	         -0.00000000	         -0.00000000	         -0.00000000	          0.00000000	          0.00000000	          0.00000000	          1.03611915	         15.38063730	          0.37259414	          0.28703594	          0.00000000	          0.06722783	          0.00000000	          0.00000000	          0.00000000	          0.00000000	         -0.06907198	          0.00000000	
          4.58400000	         -0.00000000	         -0.00000000	         -0.00000000	          0.00000000	          0.00000000	          0.00000000	          0.79552372	         13.57996043	          0.28183552	          0.27436171	          0.00000000	          0.06417844	          0.00000000	          0.00000000	          0.00000000	          0.00000000	         -0.03317982	          0.00000000	
          4.58500000	         -0.00000000	         -0.00000000	         -0.00000000	          0.00000000	          0.00000000	          0.00000000	          0.57237861	         11.88106909	          0.19772859	          0.26172834	          0.00000000	          0.06114580	          0.00000000	          0.00000000	          0.00000000	          0.00000000	         -0.00021398	          0.00000000	
          4.58600000	         -0.00000000	         -0.00000000	         -0.00000000	          0.00000000	          0.00000000	          0.00000000	          0.36604334	         10.28172878	          0.12002562	          0.24918011	          0.00000000	          0.05813996	          0.00000000	          0.00000000	          0.00000000	          0.00000000	          0.02994977	          0.00000000	
          4.58700000	         -0.00000000	         -0.00000000	         -0.00000000	          0.00000000	          0.00000000	          0.00000000	          0.17586836	          8.77951878	          0.04847572	          0.23675718	          0.00000000	          0.05516999	          0.00000000	         -0.00000000	          0.00000000	          0.00000000	          0.05743570	          0.00000000	
          4.58800000	         -0.00000000	         -0.00000000	         -0.00000000	          0.00000000	          0.00000000	          0.00000000	          0.00119829	          7.37185717	         -0.01717388	          0.22449586	          0.00000000	          0.05224406	          0.00000000	         -0.00000000	          0.00000000	          0.00000000	          0.08236762	          0.00000000	
          4.58900000	         -0.00000000	         -0.00000000	         -0.00000000	          0.00000000	          0.00000000	          0.00000000	         -0.15862514	          6.05602428	         -0.07717679	          0.21242872	          0.00000000	          0.04936949	          0.00000000	         -0.00000000	          0.00000000	          0.00000000	          0.10486848	          0.00000000	
          4.59000000	         -0.00000000	         -0.00000000	         -0.00000000	          0.00000000	          0.00000000	          0.00000000	         -0.30426030	          4.82918468	         -0.13178636	          0.20058487	          0.00000000	          0.04655277	          0.00000000	         -0.00000000	          0.00000000	          0.00000000	          0.12505996	          0.00000000	
          4.59100000	         -0.00000000	         -0.00000000	         -0.00000000	          0.00000000	          0.00000000	          0.00000000	         -0.43636323	          3.68840772	         -0.18125481	          0.18899006	          0.00000000	          0.04379963	          0.00000000	         -0.00000000	          0.00000000	          0.00000000	          0.14306209	          0.00000000	
          4.59200000	         -0.00000000	         -0.00000000	         -0.00000000	          0.00000000	          0.00000000	          0.00000000	         -0.55558530	          2.63068674	         -0.22583233	          0.17766695	          0.00000000	          0.04111506	          0.00000000	         -0.00000000	          0.00000000	          0.00000000	          0.15899301	          0.00000000	
          4.59300000	         -0.00000000	         -0.00000000	         -0.00000000	          0.00000000	          0.00000000	          0.00000000	         -0.66257119	          1.65295685	         -0.26576631	          0.16663521	          0.00000000	          0.03850339	          0.00000000	         -0.00000000	          0.00000000	          0.00000000	          0.17296862	          0.00000000	
          4.59400000	         -0.00000000	         -0.00000000	         -0.00000000	          0.00000000	          0.00000000	          0.00000000	         -0.75795698	          0.75211148	         -0.30130068	          0.15591176	          0.00000000	          0.03596827	          0.00000000	         -0.00000000	          0.00000000	          0.00000000	          0.18510236	          0.00000000	
          4.59500000	         -0.00000000	         -0.00000000	         -0.00000000	          0.00000000	          0.00000000	          0.00000000	         -0.84236854	         -0.07498231	         -0.33267521	          0.14551090	          0.00000000	          0.03351278	          0.00000000	         -0.00000000	          0.00000000	          0.00000000	          0.19550498	          0.00000000	
          4.59600000	         -0.00000000	         -0.00000000	         -0.00000000	          0.00000000	          0.00000000	          0.00000000	         -0.91641996	         -0.83146980	         -0.36012505	          0.13544452	          0.00000000	          0.03113943	          0.00000000	         -0.00000000	          0.00000000	          0.00000000	          0.20428435	          0.00000000	
          4.59700000	         -0.00000000	         -0.00000000	         -0.00000000	          0.00000000	          0.00000000	          0.00000000	         -0.98071228	         -1.52049565	         -0.38388016	          0.12572221	          0.00000000	          0.02885021	          0.00000000	         -0.00000000	          0.00000000	          0.00000000	          0.21154532	          0.00000000	
          4.59800000	         -0.00000000	         -0.00000000	         -0.00000000	          0.00000000	          0.00000000	          0.00000000	         -1.03583232	         -2.14519204	         -0.40416492	          0.11635146	          0.00000000	          0.02664661	          0.00000000	         -0.00000000	          0.00000000	          0.00000000	          0.21738956	          0.00000000	
          4.59900000	         -0.00000000	         -0.00000000	         -0.00000000	          0.00000000	          0.00000000	          0.00000000	         -1.08235165	         -2.70866797	         -0.42119774	          0.10733778	          0.00000000	          0.02452967	          0.00000000	         -0.00000000	          0.00000000	          0.00000000	          0.22191543	          0.00000000	
          4.60000000	         -0.00000000	         -0.00000000	         -0.00000000	          0.00000000	          0.00000000	          0.00000000	         -1.12082576	         -3.21399940	         -0.43519075	          0.09868488	          0.00000000	          0.02250003	          0.00000000	         -0.00000000	          0.00000000	          0.00000000	          0.22521792	          0.00000000	
          4.60100000	         -0.00000000	         -0.00000000	         -0.00000000	          0.00000000	          0.00000000	          0.00000000	         -1.15179331	         -3.66422049	         -0.44634954	          0.09039478	          0.00000000	          0.02055794	          0.00000000	         -0.00000000	          0.00000000	          0.00000000	          0.22738858	          0.00000000	
